<svg xmlns="http://www.w3.org/2000/svg" viewBox="0 0 300 300"><title>Add VM</title><rect x="28.41" y="6.57" width="151.14" height="251.93" style="fill:#fff;stroke:#f89838;stroke-miterlimit:10;stroke-width:13px"/><line x1="45.41" y1="28" x2="95.91" y2="28" style="fill:none;stroke:#f89838;stroke-miterlimit:10;stroke-width:9px"/><line x1="45.41" y1="45.68" x2="95.91" y2="45.68" style="fill:none;stroke:#f89838;stroke-miterlimit:10;stroke-width:9px"/><line x1="45.41" y1="63.36" x2="95.91" y2="63.36" style="fill:none;stroke:#f89838;stroke-miterlimit:10;stroke-width:9px"/><line x1="45.41" y1="81.05" x2="95.91" y2="81.05" style="fill:none;stroke:#f89838;stroke-miterlimit:10;stroke-width:9px"/><line x1="45.41" y1="98.73" x2="95.91" y2="98.73" style="fill:none;stroke:#f89838;stroke-miterlimit:10;stroke-width:9px"/><line x1="45.41" y1="116.41" x2="95.91" y2="116.41" style="fill:none;stroke:#f89838;stroke-miterlimit:10;stroke-width:9px"/><line x1="45.41" y1="134.09" x2="95.91" y2="134.09" style="fill:none;stroke:#f89838;stroke-miterlimit:10;stroke-width:9px"/><line x1="45.41" y1="151.77" x2="95.91" y2="151.77" style="fill:none;stroke:#f89838;stroke-miterlimit:10;stroke-width:9px"/><line x1="45.41" y1="169.45" x2="95.91" y2="169.45" style="fill:none;stroke:#f89838;stroke-miterlimit:10;stroke-width:9px"/><line x1="45.41" y1="187.14" x2="95.91" y2="187.14" style="fill:none;stroke:#f89838;stroke-miterlimit:10;stroke-width:9px"/><line x1="45.41" y1="204.82" x2="95.91" y2="204.82" style="fill:none;stroke:#f89838;stroke-miterlimit:10;stroke-width:9px"/><line x1="45.41" y1="222.5" x2="95.91" y2="222.5" style="fill:none;stroke:#f89838;stroke-miterlimit:10;stroke-width:9px"/><line x1="111.41" y1="28" x2="161.91" y2="28" style="fill:none;stroke:#f89838;stroke-miterlimit:10;stroke-width:9px"/><line x1="111.41" y1="45.68" x2="161.91" y2="45.68" style="fill:none;stroke:#f89838;stroke-miterlimit:10;stroke-width:9px"/><line x1="111.41" y1="63.36" x2="161.91" y2="63.36" style="fill:none;stroke:#f89838;stroke-miterlimit:10;stroke-width:9px"/><line x1="111.41" y1="81.05" x2="161.91" y2="81.05" style="fill:none;stroke:#f89838;stroke-miterlimit:10;stroke-width:9px"/><line x1="111.41" y1="98.73" x2="161.91" y2="98.73" style="fill:none;stroke:#f89838;stroke-miterlimit:10;stroke-width:9px"/><line x1="111.41" y1="116.41" x2="161.91" y2="116.41" style="fill:none;stroke:#f89838;stroke-miterlimit:10;stroke-width:9px"/><line x1="111.41" y1="134.09" x2="161.91" y2="134.09" style="fill:none;stroke:#f89838;stroke-miterlimit:10;stroke-width:9px"/><line x1="111.41" y1="151.77" x2="161.91" y2="151.77" style="fill:none;stroke:#f89838;stroke-miterlimit:10;stroke-width:9px"/><line x1="111.41" y1="169.45" x2="161.91" y2="169.45" style="fill:none;stroke:#f89838;stroke-miterlimit:10;stroke-width:9px"/><line x1="111.41" y1="187.14" x2="161.91" y2="187.14" style="fill:none;stroke:#f89838;stroke-miterlimit:10;stroke-width:9px"/><line x1="111.41" y1="204.82" x2="161.91" y2="204.82" style="fill:none;stroke:#f89838;stroke-miterlimit:10;stroke-width:9px"/><line x1="111.41" y1="222.5" x2="161.91" y2="222.5" style="fill:none;stroke:#f89838;stroke-miterlimit:10;stroke-width:9px"/><line x1="45.41" y1="240.55" x2="95.91" y2="240.55" style="fill:none;stroke:#f89838;stroke-miterlimit:10;stroke-width:9px"/><line x1="111.41" y1="240.55" x2="161.91" y2="240.55" style="fill:none;stroke:#f89838;stroke-miterlimit:10;stroke-width:9px"/><rect x="128.5" y="160.85" width="117" height="136.5" style="fill:none"/><rect x="145.75" y="180.65" width="116.25" height="116.25" style="fill:#fff;stroke:#f89838;stroke-miterlimit:10;stroke-width:6px"/><line x1="281" y1="167.65" x2="197.5" y2="167.65" style="fill:none;stroke:#f89838;stroke-miterlimit:10;stroke-width:9px;stroke-dasharray:9"/><path d="M175.93,247.91l8.78-32.09h11.87L181.75,259.9H170.12l-14.71-44.08h11.78Z" style="fill:#f89838"/><path d="M213.75,215.82l9.84,30.67,9.81-30.67h14V259.9H236.72V249.61l1-21.07L227.1,259.9h-7l-10.69-31.39,1,21.1V259.9H199.79V215.82h14Z" style="fill:#f89838"/><line x1="276.75" y1="163.5" x2="276.75" y2="247" style="fill:none;stroke:#f89838;stroke-miterlimit:10;stroke-width:9px;stroke-dasharray:9"/></svg>