<svg xmlns="http://www.w3.org/2000/svg" viewBox="0 0 300 300"><title>Add External Site</title><rect x="142.41" y="7.22" width="151.14" height="251.93" style="fill:#fff;stroke:#f89838;stroke-miterlimit:10;stroke-width:13px"/><line x1="159.41" y1="28.65" x2="209.91" y2="28.65" style="fill:none;stroke:#f89838;stroke-miterlimit:10;stroke-width:9px"/><line x1="159.41" y1="46.33" x2="209.91" y2="46.33" style="fill:none;stroke:#f89838;stroke-miterlimit:10;stroke-width:9px"/><line x1="159.41" y1="64.02" x2="209.91" y2="64.02" style="fill:none;stroke:#f89838;stroke-miterlimit:10;stroke-width:9px"/><line x1="159.41" y1="81.7" x2="209.91" y2="81.7" style="fill:none;stroke:#f89838;stroke-miterlimit:10;stroke-width:9px"/><line x1="159.41" y1="99.38" x2="209.91" y2="99.38" style="fill:none;stroke:#f89838;stroke-miterlimit:10;stroke-width:9px"/><line x1="159.41" y1="117.06" x2="209.91" y2="117.06" style="fill:none;stroke:#f89838;stroke-miterlimit:10;stroke-width:9px"/><line x1="159.41" y1="134.74" x2="209.91" y2="134.74" style="fill:none;stroke:#f89838;stroke-miterlimit:10;stroke-width:9px"/><line x1="159.41" y1="152.42" x2="209.91" y2="152.42" style="fill:none;stroke:#f89838;stroke-miterlimit:10;stroke-width:9px"/><line x1="159.41" y1="170.11" x2="209.91" y2="170.11" style="fill:none;stroke:#f89838;stroke-miterlimit:10;stroke-width:9px"/><line x1="159.41" y1="187.79" x2="209.91" y2="187.79" style="fill:none;stroke:#f89838;stroke-miterlimit:10;stroke-width:9px"/><line x1="159.41" y1="205.47" x2="209.91" y2="205.47" style="fill:none;stroke:#f89838;stroke-miterlimit:10;stroke-width:9px"/><line x1="159.41" y1="223.15" x2="209.91" y2="223.15" style="fill:none;stroke:#f89838;stroke-miterlimit:10;stroke-width:9px"/><line x1="225.41" y1="28.65" x2="275.91" y2="28.65" style="fill:none;stroke:#f89838;stroke-miterlimit:10;stroke-width:9px"/><line x1="225.41" y1="46.33" x2="275.91" y2="46.33" style="fill:none;stroke:#f89838;stroke-miterlimit:10;stroke-width:9px"/><line x1="225.41" y1="64.02" x2="275.91" y2="64.02" style="fill:none;stroke:#f89838;stroke-miterlimit:10;stroke-width:9px"/><line x1="225.41" y1="81.7" x2="275.91" y2="81.7" style="fill:none;stroke:#f89838;stroke-miterlimit:10;stroke-width:9px"/><line x1="225.41" y1="99.38" x2="275.91" y2="99.38" style="fill:none;stroke:#f89838;stroke-miterlimit:10;stroke-width:9px"/><line x1="225.41" y1="117.06" x2="275.91" y2="117.06" style="fill:none;stroke:#f89838;stroke-miterlimit:10;stroke-width:9px"/><line x1="225.41" y1="134.74" x2="275.91" y2="134.74" style="fill:none;stroke:#f89838;stroke-miterlimit:10;stroke-width:9px"/><line x1="225.41" y1="152.42" x2="275.91" y2="152.42" style="fill:none;stroke:#f89838;stroke-miterlimit:10;stroke-width:9px"/><line x1="225.41" y1="170.11" x2="275.91" y2="170.11" style="fill:none;stroke:#f89838;stroke-miterlimit:10;stroke-width:9px"/><line x1="225.41" y1="187.79" x2="275.91" y2="187.79" style="fill:none;stroke:#f89838;stroke-miterlimit:10;stroke-width:9px"/><line x1="225.41" y1="205.47" x2="275.91" y2="205.47" style="fill:none;stroke:#f89838;stroke-miterlimit:10;stroke-width:9px"/><line x1="225.41" y1="223.15" x2="275.91" y2="223.15" style="fill:none;stroke:#f89838;stroke-miterlimit:10;stroke-width:9px"/><path d="M262.31,230.34A45.9,45.9,0,0,0,264,218a46.72,46.72,0,0,0-66.76-41.73,46.82,46.82,0,0,0-79.64-9,46.77,46.77,0,0,0-63.78,34.43l-0.76,0a46.25,46.25,0,1,0,0,92.5H261.22A31.91,31.91,0,0,0,262.31,230.34Z" style="fill:#fff;stroke:#f89838;stroke-miterlimit:10;stroke-width:13px"/><path d="M67.13,231.79H55V240H69.23v5.06H48.74V214.51H69.19v5.1H55v7.29H67.13v4.89Z" style="fill:#f89838"/><path d="M83.87,225l5.73-10.54h7.24l-8.9,15.16,9.13,15.41H89.75l-5.88-10.71L78,245.08H70.66l9.13-15.41-8.9-15.16h7.24Z" style="fill:#f89838"/><path d="M123.26,219.61h-9.36v25.47h-6.3V219.61H98.36v-5.1h24.9v5.1Z" style="fill:#f89838"/><path d="M145.24,231.79H133.15V240h14.19v5.06H126.85V214.51H147.3v5.1H133.15v7.29h12.09v4.89Z" style="fill:#f89838"/><path d="M162.35,233.89h-5v11.19H151V214.51h11.36q5.42,0,8.36,2.42a8.33,8.33,0,0,1,2.94,6.82,9.41,9.41,0,0,1-1.35,5.22,9.24,9.24,0,0,1-4.1,3.33l6.61,12.49v0.29h-6.76Zm-5-5.1h5.08a5.2,5.2,0,0,0,3.67-1.21,4.32,4.32,0,0,0,1.3-3.33,4.62,4.62,0,0,0-1.23-3.4,5.11,5.11,0,0,0-3.77-1.24h-5.06v9.17Z" style="fill:#f89838"/><path d="M203.34,245.08H197L184.78,225v20.11h-6.3V214.51h6.3l12.28,20.16V214.51h6.28v30.57Z" style="fill:#f89838"/><path d="M226.47,238.78h-11l-2.1,6.3h-6.7L218,214.51h5.84l11.44,30.57h-6.7Zm-9.34-5.1h7.64l-3.84-11.44Z" style="fill:#f89838"/><path d="M244.85,245.08h-6.3V214.51h6.3v30.57Z" style="fill:#f89838"/><path d="M121,277.06a3.23,3.23,0,0,0-1.26-2.74,16.53,16.53,0,0,0-4.54-2,32,32,0,0,1-5.19-2.09q-5.21-2.81-5.21-7.58a7.38,7.38,0,0,1,1.4-4.42,9.11,9.11,0,0,1,4-3,15.1,15.1,0,0,1,5.87-1.09,13.74,13.74,0,0,1,5.84,1.19,9.3,9.3,0,0,1,4,3.35,8.77,8.77,0,0,1,1.42,4.91H121a4.12,4.12,0,0,0-1.32-3.26A5.43,5.43,0,0,0,116,259.1a5.81,5.81,0,0,0-3.59,1,3.08,3.08,0,0,0-1.28,2.57,3,3,0,0,0,1.5,2.5A17,17,0,0,0,117,267q5.37,1.62,7.83,4a8,8,0,0,1,2.46,6,7.36,7.36,0,0,1-3,6.23,13.14,13.14,0,0,1-8.08,2.26,15.62,15.62,0,0,1-6.42-1.29,10.17,10.17,0,0,1-4.42-3.54,9.06,9.06,0,0,1-1.52-5.21h6.32q0,5.06,6,5.06a5.88,5.88,0,0,0,3.51-.91A3,3,0,0,0,121,277.06Z" style="fill:#f89838"/><path d="M138.27,285.08H132V254.51h6.3v30.57Z" style="fill:#f89838"/><path d="M166.51,259.61h-9.36v25.47h-6.3V259.61h-9.24v-5.1h24.9v5.1Z" style="fill:#f89838"/><path d="M188.49,271.79H176.4V280h14.19v5.06H170.1V254.51h20.45v5.1H176.4v7.29h12.09v4.89Z" style="fill:#f89838"/><line x1="239.41" y1="242.1" x2="252.41" y2="242.1" style="fill:#f89838;stroke:#f7941e;stroke-miterlimit:10;stroke-width:6px"/></svg>