<svg xmlns="http://www.w3.org/2000/svg" viewBox="0 0 300 299.93"><title>Add Cloud Site</title><rect x="7.43" y="6.5" width="151.14" height="232.43" style="fill:#fff;stroke:#f89838;stroke-miterlimit:10;stroke-width:13px"/><line x1="23.41" y1="27.93" x2="73.91" y2="27.93" style="fill:none;stroke:#f89838;stroke-miterlimit:10;stroke-width:9px"/><line x1="23.41" y1="45.61" x2="73.91" y2="45.61" style="fill:none;stroke:#f89838;stroke-miterlimit:10;stroke-width:9px"/><line x1="23.41" y1="63.29" x2="73.91" y2="63.29" style="fill:none;stroke:#f89838;stroke-miterlimit:10;stroke-width:9px"/><line x1="23.41" y1="80.97" x2="73.91" y2="80.97" style="fill:none;stroke:#f89838;stroke-miterlimit:10;stroke-width:9px"/><line x1="23.41" y1="98.66" x2="73.91" y2="98.66" style="fill:none;stroke:#f89838;stroke-miterlimit:10;stroke-width:9px"/><line x1="23.41" y1="116.34" x2="73.91" y2="116.34" style="fill:none;stroke:#f89838;stroke-miterlimit:10;stroke-width:9px"/><line x1="23.41" y1="134.02" x2="73.91" y2="134.02" style="fill:none;stroke:#f89838;stroke-miterlimit:10;stroke-width:9px"/><line x1="23.41" y1="151.7" x2="73.91" y2="151.7" style="fill:none;stroke:#f89838;stroke-miterlimit:10;stroke-width:9px"/><line x1="23.41" y1="169.38" x2="73.91" y2="169.38" style="fill:none;stroke:#f89838;stroke-miterlimit:10;stroke-width:9px"/><line x1="23.41" y1="187.07" x2="73.91" y2="187.07" style="fill:none;stroke:#f89838;stroke-miterlimit:10;stroke-width:9px"/><line x1="23.41" y1="204.75" x2="73.91" y2="204.75" style="fill:none;stroke:#f89838;stroke-miterlimit:10;stroke-width:9px"/><line x1="23.41" y1="222.43" x2="73.91" y2="222.43" style="fill:none;stroke:#f89838;stroke-miterlimit:10;stroke-width:9px"/><line x1="89.41" y1="27.93" x2="139.91" y2="27.93" style="fill:none;stroke:#f89838;stroke-miterlimit:10;stroke-width:9px"/><line x1="89.41" y1="45.61" x2="139.91" y2="45.61" style="fill:none;stroke:#f89838;stroke-miterlimit:10;stroke-width:9px"/><line x1="89.41" y1="63.29" x2="139.91" y2="63.29" style="fill:none;stroke:#f89838;stroke-miterlimit:10;stroke-width:9px"/><line x1="89.41" y1="80.97" x2="139.91" y2="80.97" style="fill:none;stroke:#f89838;stroke-miterlimit:10;stroke-width:9px"/><line x1="89.41" y1="98.66" x2="139.91" y2="98.66" style="fill:none;stroke:#f89838;stroke-miterlimit:10;stroke-width:9px"/><line x1="89.41" y1="116.34" x2="139.91" y2="116.34" style="fill:none;stroke:#f89838;stroke-miterlimit:10;stroke-width:9px"/><line x1="89.41" y1="134.02" x2="139.91" y2="134.02" style="fill:none;stroke:#f89838;stroke-miterlimit:10;stroke-width:9px"/><line x1="89.41" y1="151.7" x2="139.91" y2="151.7" style="fill:none;stroke:#f89838;stroke-miterlimit:10;stroke-width:9px"/><line x1="89.41" y1="169.38" x2="139.91" y2="169.38" style="fill:none;stroke:#f89838;stroke-miterlimit:10;stroke-width:9px"/><line x1="89.41" y1="187.07" x2="139.91" y2="187.07" style="fill:none;stroke:#f89838;stroke-miterlimit:10;stroke-width:9px"/><line x1="89.41" y1="204.75" x2="139.91" y2="204.75" style="fill:none;stroke:#f89838;stroke-miterlimit:10;stroke-width:9px"/><line x1="89.41" y1="222.43" x2="139.91" y2="222.43" style="fill:none;stroke:#f89838;stroke-miterlimit:10;stroke-width:9px"/><path d="M262.4,230.34A45.9,45.9,0,0,0,264.08,218a46.72,46.72,0,0,0-66.76-41.73,46.82,46.82,0,0,0-79.64-9A46.77,46.77,0,0,0,53.9,201.67l-0.76,0a46.25,46.25,0,1,0,0,92.5H261.31A31.91,31.91,0,0,0,262.4,230.34Z" transform="translate(0 -0.72)" style="fill:#fff;stroke:#f89838;stroke-miterlimit:10;stroke-width:13px"/><path d="M44.42,241.1a17.19,17.19,0,0,1-1.58,7.55,11.7,11.7,0,0,1-4.49,5.05,12.52,12.52,0,0,1-6.64,1.77,12.69,12.69,0,0,1-6.61-1.71,11.66,11.66,0,0,1-4.49-4.89,16.69,16.69,0,0,1-1.69-7.31v-1.64a17.25,17.25,0,0,1,1.57-7.56,11.65,11.65,0,0,1,4.5-5.05,12.6,12.6,0,0,1,6.68-1.78,12.49,12.49,0,0,1,6.61,1.76,11.88,11.88,0,0,1,4.51,5,16.79,16.79,0,0,1,1.63,7.46v1.34Zm-7.15-1.22a12.26,12.26,0,0,0-1.45-6.6A4.66,4.66,0,0,0,31.67,231q-5.29,0-5.59,7.93l0,2.14a12.61,12.61,0,0,0,1.42,6.59,4.65,4.65,0,0,0,4.22,2.3,4.59,4.59,0,0,0,4.1-2.26,12.26,12.26,0,0,0,1.46-6.51v-1.34Z" transform="translate(0 -0.72)" style="fill:#f89838"/><path d="M55.07,245.19v9.89H48V225.93H59.68a13.54,13.54,0,0,1,5.92,1.23,9.29,9.29,0,0,1,4,3.5A9.57,9.57,0,0,1,71,235.82a8.43,8.43,0,0,1-3.05,6.82q-3.05,2.55-8.38,2.55H55.07Zm0-5.42h4.6a4.34,4.34,0,0,0,3.11-1,3.79,3.79,0,0,0,1.07-2.88,4.69,4.69,0,0,0-1.1-3.26,3.9,3.9,0,0,0-3-1.24H55.07v8.41Z" transform="translate(0 -0.72)" style="fill:#f89838"/><path d="M92.81,242.7H81.76v7H94.81v5.41H74.73V225.93H94.85v5.43H81.76v6.15H92.81v5.21Z" transform="translate(0 -0.72)" style="fill:#f89838"/><path d="M122,255.08h-7L104.7,236.94v18.14h-7V225.93h7L115,244.07V225.93h7v29.15Z" transform="translate(0 -0.72)" style="fill:#f89838"/><path d="M141.5,247.33a2.89,2.89,0,0,0-1.09-2.4,13.56,13.56,0,0,0-3.83-1.78,36.62,36.62,0,0,1-4.48-1.78q-5.67-2.78-5.67-7.65a6.86,6.86,0,0,1,1.41-4.27,9.13,9.13,0,0,1,4-2.88,15.54,15.54,0,0,1,5.81-1,13.6,13.6,0,0,1,5.64,1.12,8.93,8.93,0,0,1,3.87,3.19,8.34,8.34,0,0,1,1.38,4.73h-7a3.53,3.53,0,0,0-1.09-2.76,4.26,4.26,0,0,0-3-1,4.8,4.8,0,0,0-3,.83,2.45,2.45,0,0,0,.11,4.14,15.14,15.14,0,0,0,4.22,1.88,25.92,25.92,0,0,1,5,2.09q4.72,2.72,4.72,7.51a7.12,7.12,0,0,1-2.88,6q-2.88,2.18-7.91,2.18a15.67,15.67,0,0,1-6.42-1.27,9.66,9.66,0,0,1-4.32-3.48,9.07,9.07,0,0,1-1.45-5.09h7a4.47,4.47,0,0,0,1.21,3.45,5.72,5.72,0,0,0,3.93,1.11,4.52,4.52,0,0,0,2.75-.75A2.48,2.48,0,0,0,141.5,247.33Z" transform="translate(0 -0.72)" style="fill:#f89838"/><path d="M175,231.35h-8.75v23.72h-7V231.35h-8.59v-5.43H175v5.43Z" transform="translate(0 -0.72)" style="fill:#f89838"/><path d="M192.13,249.63H182.5l-1.68,5.45h-7.51L184,225.93h6.61l10.77,29.15h-7.55Zm-7.95-5.42h6.27L187.3,234.1Z" transform="translate(0 -0.72)" style="fill:#f89838"/><path d="M227.08,245.21a10.65,10.65,0,0,1-1.64,5.38,9.9,9.9,0,0,1-4.21,3.61,14.34,14.34,0,0,1-6.2,1.28,11.44,11.44,0,0,1-9-3.74q-3.3-3.74-3.3-10.57v-1.44a17.64,17.64,0,0,1,1.49-7.5,11.3,11.3,0,0,1,4.29-5,12,12,0,0,1,6.49-1.75,12.57,12.57,0,0,1,8.53,2.79,11,11,0,0,1,3.66,7.7h-7a5.22,5.22,0,0,0-1.34-3.82,5.52,5.52,0,0,0-3.84-1.16,4.2,4.2,0,0,0-3.84,2q-1.22,2-1.28,6.27v2.06q0,4.67,1.17,6.67a4.29,4.29,0,0,0,4,2,5.4,5.4,0,0,0,3.7-1.14,4.84,4.84,0,0,0,1.36-3.62h7Z" transform="translate(0 -0.72)" style="fill:#f89838"/><path d="M240.31,244.23l-2.88,3.16v7.69h-7V225.93h7v12.85l2.44-3.7,6.29-9.15h8.69L245,238.82l9.85,16.26h-8.33Z" transform="translate(0 -0.72)" style="fill:#f89838"/></svg>