<svg xmlns="http://www.w3.org/2000/svg" viewBox="0 0 340 340"><title>Cloud Site-OpenStack-Green</title><rect x="4.5" y="4" width="332" height="332" rx="56.38" ry="56.38" style="fill:#fff;stroke:#009447;stroke-miterlimit:10;stroke-width:8px"/><path d="M286.79,104.51A46.57,46.57,0,0,0,288.5,92a47.39,47.39,0,0,0-67.73-42.33A47.5,47.5,0,0,0,140,40.5a47.45,47.45,0,0,0-64.7,34.93l-0.77,0a46.92,46.92,0,1,0,0,93.83H285.69A32.37,32.37,0,0,0,286.79,104.51Z" style="fill:#fff;stroke:#009447;stroke-miterlimit:10;stroke-width:10px"/><line x1="74.51" y1="169.25" x2="285.69" y2="169.25" style="fill:none;stroke:#fff;stroke-miterlimit:10;stroke-width:11px"/><line x1="180.1" y1="288.5" x2="180.1" y2="316" style="fill:none;stroke:#009447;stroke-miterlimit:10;stroke-width:8px"/><path d="M108.6,261v41.58A13.42,13.42,0,0,0,122,316H238.17a13.42,13.42,0,0,0,13.42-13.42V261" style="fill:none;stroke:#009447;stroke-miterlimit:10;stroke-width:8px"/><rect x="81.75" y="126.25" width="54" height="139.5" style="fill:#fff;stroke:#009447;stroke-miterlimit:10;stroke-width:5px"/><line x1="89.25" y1="196.25" x2="119.75" y2="196.25" style="fill:none;stroke:#009447;stroke-miterlimit:10;stroke-width:5px"/><line x1="89.25" y1="210.75" x2="119.75" y2="210.75" style="fill:none;stroke:#009447;stroke-miterlimit:10;stroke-width:5px"/><line x1="89.25" y1="225.25" x2="119.75" y2="225.25" style="fill:none;stroke:#009447;stroke-miterlimit:10;stroke-width:5px"/><line x1="89.25" y1="239.75" x2="119.75" y2="239.75" style="fill:none;stroke:#009447;stroke-miterlimit:10;stroke-width:5px"/><line x1="89.25" y1="254.25" x2="119.75" y2="254.25" style="fill:none;stroke:#009447;stroke-miterlimit:10;stroke-width:5px"/><line x1="89.25" y1="138.25" x2="119.75" y2="138.25" style="fill:none;stroke:#009447;stroke-miterlimit:10;stroke-width:5px"/><line x1="89.25" y1="152.75" x2="119.75" y2="152.75" style="fill:none;stroke:#009447;stroke-miterlimit:10;stroke-width:5px"/><line x1="89.25" y1="167.25" x2="119.75" y2="167.25" style="fill:none;stroke:#009447;stroke-miterlimit:10;stroke-width:5px"/><line x1="89.25" y1="181.75" x2="119.75" y2="181.75" style="fill:none;stroke:#009447;stroke-miterlimit:10;stroke-width:5px"/><rect x="153.1" y="148.25" width="54" height="139.5" style="fill:#fff;stroke:#009447;stroke-miterlimit:10;stroke-width:5px"/><line x1="160.6" y1="218.25" x2="191.1" y2="218.25" style="fill:none;stroke:#009447;stroke-miterlimit:10;stroke-width:5px"/><line x1="160.6" y1="232.75" x2="191.1" y2="232.75" style="fill:none;stroke:#009447;stroke-miterlimit:10;stroke-width:5px"/><line x1="160.6" y1="247.25" x2="191.1" y2="247.25" style="fill:none;stroke:#009447;stroke-miterlimit:10;stroke-width:5px"/><line x1="160.6" y1="261.75" x2="191.1" y2="261.75" style="fill:none;stroke:#009447;stroke-miterlimit:10;stroke-width:5px"/><line x1="160.6" y1="276.25" x2="191.1" y2="276.25" style="fill:none;stroke:#009447;stroke-miterlimit:10;stroke-width:5px"/><line x1="160.6" y1="160.25" x2="191.1" y2="160.25" style="fill:none;stroke:#009447;stroke-miterlimit:10;stroke-width:5px"/><line x1="160.6" y1="174.75" x2="191.1" y2="174.75" style="fill:none;stroke:#009447;stroke-miterlimit:10;stroke-width:5px"/><line x1="160.6" y1="189.25" x2="191.1" y2="189.25" style="fill:none;stroke:#009447;stroke-miterlimit:10;stroke-width:5px"/><line x1="160.6" y1="203.75" x2="191.1" y2="203.75" style="fill:none;stroke:#009447;stroke-miterlimit:10;stroke-width:5px"/><rect x="224.6" y="126.25" width="54" height="139.5" style="fill:#fff;stroke:#009447;stroke-miterlimit:10;stroke-width:5px"/><line x1="232.1" y1="196.25" x2="262.6" y2="196.25" style="fill:none;stroke:#009447;stroke-miterlimit:10;stroke-width:5px"/><line x1="232.1" y1="210.75" x2="262.6" y2="210.75" style="fill:none;stroke:#009447;stroke-miterlimit:10;stroke-width:5px"/><line x1="232.1" y1="225.25" x2="262.6" y2="225.25" style="fill:none;stroke:#009447;stroke-miterlimit:10;stroke-width:5px"/><line x1="232.1" y1="239.75" x2="262.6" y2="239.75" style="fill:none;stroke:#009447;stroke-miterlimit:10;stroke-width:5px"/><line x1="232.1" y1="254.25" x2="262.6" y2="254.25" style="fill:none;stroke:#009447;stroke-miterlimit:10;stroke-width:5px"/><line x1="232.1" y1="138.25" x2="262.6" y2="138.25" style="fill:none;stroke:#009447;stroke-miterlimit:10;stroke-width:5px"/><line x1="232.1" y1="152.75" x2="262.6" y2="152.75" style="fill:none;stroke:#009447;stroke-miterlimit:10;stroke-width:5px"/><line x1="232.1" y1="167.25" x2="262.6" y2="167.25" style="fill:none;stroke:#009447;stroke-miterlimit:10;stroke-width:5px"/><line x1="232.1" y1="181.75" x2="262.6" y2="181.75" style="fill:none;stroke:#009447;stroke-miterlimit:10;stroke-width:5px"/><path d="M93.86,100.35A15.09,15.09,0,0,1,92.47,107a10.26,10.26,0,0,1-3.95,4.44A11,11,0,0,1,82.7,113a11.14,11.14,0,0,1-5.8-1.5,10.25,10.25,0,0,1-3.95-4.3,14.66,14.66,0,0,1-1.49-6.42V99.32a15.16,15.16,0,0,1,1.38-6.64,10.24,10.24,0,0,1,4-4.44,11.71,11.71,0,0,1,11.66,0,10.42,10.42,0,0,1,4,4.4,14.72,14.72,0,0,1,1.43,6.55v1.18Zm-6.28-1.07a10.76,10.76,0,0,0-1.27-5.79,4.09,4.09,0,0,0-3.65-2q-4.64,0-4.9,7l0,1.88A11.07,11.07,0,0,0,79,106.14a4.08,4.08,0,0,0,3.71,2,4,4,0,0,0,3.6-2,10.77,10.77,0,0,0,1.28-5.71V99.28Z" style="fill:#6d6e71"/><path d="M103.21,103.94v8.68H97V87h10.21a11.9,11.9,0,0,1,5.19,1.08,8.15,8.15,0,0,1,3.5,3.08,8.4,8.4,0,0,1,1.24,4.53,7.41,7.41,0,0,1-2.68,6,11.12,11.12,0,0,1-7.36,2.24h-3.94Zm0-4.76h4a3.81,3.81,0,0,0,2.73-.9,3.33,3.33,0,0,0,.94-2.53,4.12,4.12,0,0,0-1-2.87,3.42,3.42,0,0,0-2.64-1.09h-4.11v7.38Z" style="fill:#6d6e71"/><path d="M136.34,101.76h-9.7v6.12H138.1v4.75H120.47V87h17.67v4.76h-11.5v5.4h9.7v4.57Z" style="fill:#6d6e71"/><path d="M162,112.62h-6.13L146.79,96.7v15.93h-6.17V87h6.17L155.84,103V87H162v25.59Z" style="fill:#6d6e71"/><path d="M179.09,105.82a2.54,2.54,0,0,0-1-2.11,11.91,11.91,0,0,0-3.37-1.56,32.29,32.29,0,0,1-3.94-1.56q-5-2.44-5-6.71a6,6,0,0,1,1.24-3.75,8,8,0,0,1,3.51-2.53,13.65,13.65,0,0,1,5.1-.91,11.94,11.94,0,0,1,4.95,1,7.83,7.83,0,0,1,3.4,2.8,7.32,7.32,0,0,1,1.21,4.16h-6.15a3.09,3.09,0,0,0-1-2.43,3.73,3.73,0,0,0-2.59-.86,4.21,4.21,0,0,0-2.61.73,2.15,2.15,0,0,0,.1,3.64,13.3,13.3,0,0,0,3.71,1.65,22.72,22.72,0,0,1,4.36,1.84q4.15,2.39,4.15,6.59a6.25,6.25,0,0,1-2.53,5.27,11.26,11.26,0,0,1-6.94,1.92,13.78,13.78,0,0,1-5.63-1.12,8.49,8.49,0,0,1-3.8-3.06,8,8,0,0,1-1.27-4.47h6.19a3.93,3.93,0,0,0,1.06,3,5,5,0,0,0,3.45,1,4,4,0,0,0,2.42-.66A2.18,2.18,0,0,0,179.09,105.82Z" style="fill:#6d6e71"/><path d="M208.52,91.79h-7.68v20.83h-6.17V91.79h-7.54V87h21.39v4.76Z" style="fill:#6d6e71"/><path d="M223.55,107.84h-8.46l-1.48,4.78H207L216.41,87h5.8l9.46,25.59H225Zm-7-4.76h5.5l-2.76-8.88Z" style="fill:#6d6e71"/><path d="M254.24,104a9.35,9.35,0,0,1-1.44,4.72,8.7,8.7,0,0,1-3.7,3.17,12.59,12.59,0,0,1-5.44,1.13,10.05,10.05,0,0,1-7.95-3.29q-2.9-3.29-2.9-9.28V99.14a15.49,15.49,0,0,1,1.31-6.58,9.92,9.92,0,0,1,3.77-4.36,10.52,10.52,0,0,1,5.7-1.54,11,11,0,0,1,7.49,2.45,9.69,9.69,0,0,1,3.22,6.76h-6.15A4.58,4.58,0,0,0,247,92.51a4.84,4.84,0,0,0-3.37-1,3.69,3.69,0,0,0-3.37,1.72,11.07,11.07,0,0,0-1.12,5.5v1.81q0,4.1,1,5.85a3.76,3.76,0,0,0,3.54,1.76,4.74,4.74,0,0,0,3.25-1,4.25,4.25,0,0,0,1.2-3.18h6.13Z" style="fill:#6d6e71"/><path d="M265.86,103.1l-2.53,2.78v6.75h-6.17V87h6.17V98.31l2.14-3.25L271,87h7.63L270,98.35l8.65,14.27h-7.31Z" style="fill:#6d6e71"/></svg>