<svg xmlns="http://www.w3.org/2000/svg" viewBox="0 0 340 340"><title>Cloud Site - External - Blue</title><rect x="4" y="4" width="332" height="332" rx="56.38" ry="56.38" style="fill:#fff;stroke:#1c75bc;stroke-miterlimit:10;stroke-width:8px"/><path d="M286.79,104.51A46.57,46.57,0,0,0,288.5,92a47.39,47.39,0,0,0-67.73-42.33A47.5,47.5,0,0,0,140,40.5a47.45,47.45,0,0,0-64.7,34.93l-0.77,0a46.92,46.92,0,1,0,0,93.83H285.69A32.37,32.37,0,0,0,286.79,104.51Z" style="fill:#fff;stroke:#1c75bc;stroke-miterlimit:10;stroke-width:10px"/><line x1="74.51" y1="169.25" x2="285.69" y2="169.25" style="fill:none;stroke:#fff;stroke-miterlimit:10;stroke-width:11px"/><line x1="180.1" y1="261" x2="180.1" y2="316" style="fill:none;stroke:#1c75bc;stroke-miterlimit:10;stroke-width:8px"/><path d="M108.6,261v41.58A13.42,13.42,0,0,0,122,316H238.17a13.42,13.42,0,0,0,13.42-13.42V261" style="fill:none;stroke:#1c75bc;stroke-miterlimit:10;stroke-width:8px"/><rect x="81.75" y="126.25" width="54" height="139.5" style="fill:#fff;stroke:#1c75bc;stroke-miterlimit:10;stroke-width:5px"/><line x1="89.25" y1="196.25" x2="119.75" y2="196.25" style="fill:none;stroke:#1c75bc;stroke-miterlimit:10;stroke-width:5px"/><line x1="89.25" y1="210.75" x2="119.75" y2="210.75" style="fill:none;stroke:#1c75bc;stroke-miterlimit:10;stroke-width:5px"/><line x1="89.25" y1="225.25" x2="119.75" y2="225.25" style="fill:none;stroke:#1c75bc;stroke-miterlimit:10;stroke-width:5px"/><line x1="89.25" y1="239.75" x2="119.75" y2="239.75" style="fill:none;stroke:#1c75bc;stroke-miterlimit:10;stroke-width:5px"/><line x1="89.25" y1="254.25" x2="119.75" y2="254.25" style="fill:none;stroke:#1c75bc;stroke-miterlimit:10;stroke-width:5px"/><line x1="89.25" y1="138.25" x2="119.75" y2="138.25" style="fill:none;stroke:#1c75bc;stroke-miterlimit:10;stroke-width:5px"/><line x1="89.25" y1="152.75" x2="119.75" y2="152.75" style="fill:none;stroke:#1c75bc;stroke-miterlimit:10;stroke-width:5px"/><line x1="89.25" y1="167.25" x2="119.75" y2="167.25" style="fill:none;stroke:#1c75bc;stroke-miterlimit:10;stroke-width:5px"/><line x1="89.25" y1="181.75" x2="119.75" y2="181.75" style="fill:none;stroke:#1c75bc;stroke-miterlimit:10;stroke-width:5px"/><rect x="153.1" y="148.25" width="54" height="139.5" style="fill:#fff;stroke:#1c75bc;stroke-miterlimit:10;stroke-width:5px"/><line x1="160.6" y1="218.25" x2="191.1" y2="218.25" style="fill:none;stroke:#1c75bc;stroke-miterlimit:10;stroke-width:5px"/><line x1="160.6" y1="232.75" x2="191.1" y2="232.75" style="fill:none;stroke:#1c75bc;stroke-miterlimit:10;stroke-width:5px"/><line x1="160.6" y1="247.25" x2="191.1" y2="247.25" style="fill:none;stroke:#1c75bc;stroke-miterlimit:10;stroke-width:5px"/><line x1="160.6" y1="261.75" x2="191.1" y2="261.75" style="fill:none;stroke:#1c75bc;stroke-miterlimit:10;stroke-width:5px"/><line x1="160.6" y1="276.25" x2="191.1" y2="276.25" style="fill:none;stroke:#1c75bc;stroke-miterlimit:10;stroke-width:5px"/><line x1="160.6" y1="160.25" x2="191.1" y2="160.25" style="fill:none;stroke:#1c75bc;stroke-miterlimit:10;stroke-width:5px"/><line x1="160.6" y1="174.75" x2="191.1" y2="174.75" style="fill:none;stroke:#1c75bc;stroke-miterlimit:10;stroke-width:5px"/><line x1="160.6" y1="189.25" x2="191.1" y2="189.25" style="fill:none;stroke:#1c75bc;stroke-miterlimit:10;stroke-width:5px"/><line x1="160.6" y1="203.75" x2="191.1" y2="203.75" style="fill:none;stroke:#1c75bc;stroke-miterlimit:10;stroke-width:5px"/><rect x="224.6" y="126.25" width="54" height="139.5" style="fill:#fff;stroke:#1c75bc;stroke-miterlimit:10;stroke-width:5px"/><line x1="232.1" y1="196.25" x2="262.6" y2="196.25" style="fill:none;stroke:#1c75bc;stroke-miterlimit:10;stroke-width:5px"/><line x1="232.1" y1="210.75" x2="262.6" y2="210.75" style="fill:none;stroke:#1c75bc;stroke-miterlimit:10;stroke-width:5px"/><line x1="232.1" y1="225.25" x2="262.6" y2="225.25" style="fill:none;stroke:#1c75bc;stroke-miterlimit:10;stroke-width:5px"/><line x1="232.1" y1="239.75" x2="262.6" y2="239.75" style="fill:none;stroke:#1c75bc;stroke-miterlimit:10;stroke-width:5px"/><line x1="232.1" y1="254.25" x2="262.6" y2="254.25" style="fill:none;stroke:#1c75bc;stroke-miterlimit:10;stroke-width:5px"/><line x1="232.1" y1="138.25" x2="262.6" y2="138.25" style="fill:none;stroke:#1c75bc;stroke-miterlimit:10;stroke-width:5px"/><line x1="232.1" y1="152.75" x2="262.6" y2="152.75" style="fill:none;stroke:#1c75bc;stroke-miterlimit:10;stroke-width:5px"/><line x1="232.1" y1="167.25" x2="262.6" y2="167.25" style="fill:none;stroke:#1c75bc;stroke-miterlimit:10;stroke-width:5px"/><line x1="232.1" y1="181.75" x2="262.6" y2="181.75" style="fill:none;stroke:#1c75bc;stroke-miterlimit:10;stroke-width:5px"/></svg>