<svg xmlns="http://www.w3.org/2000/svg" viewBox="0 0 1294.11 367.39"><title>CPLANE NETWORKS logo latha - 2 line</title><path d="M120.45,68.76a30.44,30.44,0,0,0-4.29-10.84,30.1,30.1,0,0,0-7.62-8,34,34,0,0,0-10.37-5,43.51,43.51,0,0,0-12.39-1.73,44.7,44.7,0,0,0-18.23,3.57A37.23,37.23,0,0,0,53.73,57.2a48.67,48.67,0,0,0-8.82,17.1,81,81,0,0,0-3.1,23.53,81.13,81.13,0,0,0,3.1,23.47,50.55,50.55,0,0,0,8.82,17.33,37.14,37.14,0,0,0,13.76,10.72A43,43,0,0,0,85.42,153q14.18,0,23.47-7.33t11.68-21.27h30.14a65.82,65.82,0,0,1-7.21,23.41A57.2,57.2,0,0,1,129.45,165a59.33,59.33,0,0,1-19.66,10.54,78.57,78.57,0,0,1-24.13,3.57A78.65,78.65,0,0,1,55,173.36,63.91,63.91,0,0,1,31.81,157,73.79,73.79,0,0,1,17.1,131.43a102.51,102.51,0,0,1-5.18-33.6,101.41,101.41,0,0,1,5.24-33.6A73.39,73.39,0,0,1,32,38.68,64.83,64.83,0,0,1,55.22,22.41a78,78,0,0,1,30.44-5.72,70.86,70.86,0,0,1,23,3.69,64.56,64.56,0,0,1,19.42,10.48,61,61,0,0,1,22.28,37.89h-29.9Z" transform="translate(-11.91 -16.69)" style="fill:#f89639"/><path d="M181.69,19.31H242a127.5,127.5,0,0,1,23.35,2.08A55.16,55.16,0,0,1,285,28.91a40.1,40.1,0,0,1,13.64,14.65q5.12,9.23,5.12,23.53,0,25.14-15.25,37.71t-45.27,12.57H211v59.21H181.69V19.31ZM211,90.44h32.88A54.74,54.74,0,0,0,257.64,89a24.08,24.08,0,0,0,9.23-4.41,17.28,17.28,0,0,0,5.24-7.15,26.69,26.69,0,0,0,1.67-9.83q0-6.79-2.44-10.9a17.33,17.33,0,0,0-6.67-6.43,28.27,28.27,0,0,0-9.77-3.1,84,84,0,0,0-11.62-.77H211V90.44Z" transform="translate(-11.91 -16.69)" style="fill:#231f20"/><path d="M435.1,176.58H333.59V19.31H362.9V149.54h72.2v27Z" transform="translate(-11.91 -16.69)" style="fill:#231f20"/><path d="M597.73,176.58H565l-17.16-45h-55l-16.44,45h-31.1L505.75,19.2h27.88Zm-59.09-69.94L519.57,56.73l-18,49.92h37.05Z" transform="translate(-11.91 -16.69)" style="fill:#231f20"/><path d="M743.44,176.58H715.8L645.62,71.38v105.2H617.39V19.31h27.76L715,124.64V19.31h28.47V176.58Z" transform="translate(-11.91 -16.69)" style="fill:#231f20"/><path d="M901.78,176.58H781.56V19.31H898.32v27H810.87v35.5h81.85v26.81H810.87v40.87h90.9v27Z" transform="translate(-11.91 -16.69)" style="fill:#231f20"/><path d="M145.11,381.58H117.47L47.3,276.38v105.2H19.06V224.31H46.82l69.82,105.32V224.31h28.47V381.58Z" transform="translate(-11.91 -16.69)" style="fill:#f89639"/><path d="M303.45,381.58H183.24V224.31H300v27H212.55v35.5H294.4v26.81H212.55v40.87h90.9v27Z" transform="translate(-11.91 -16.69)" style="fill:#231f20"/><path d="M449.64,251.36h-49V381.58H371.24V251.36H322.51v-27H449.64v27Z" transform="translate(-11.91 -16.69)" style="fill:#231f20"/><path d="M665,224.31L621.32,381.58H595.11L563.18,266.37,531.37,381.58H505.16L461.55,224.31h30.86l26.09,105.8,29.19-105.8H578.9L608,330l26.21-105.68H665Z" transform="translate(-11.91 -16.69)" style="fill:#231f20"/><path d="M757.38,221.69a77.45,77.45,0,0,1,30.32,5.84A70.11,70.11,0,0,1,811.65,244a75.25,75.25,0,0,1,15.73,25.62,100.08,100.08,0,0,1,.06,66.18,76.41,76.41,0,0,1-15.61,25.67,70.07,70.07,0,0,1-23.89,16.68,81.74,81.74,0,0,1-61.12.06,69.36,69.36,0,0,1-23.89-16.62,76.38,76.38,0,0,1-15.61-25.67,100.78,100.78,0,0,1,.06-66.42,74.72,74.72,0,0,1,15.79-25.62,70.13,70.13,0,0,1,23.95-16.38A77.69,77.69,0,0,1,757.38,221.69ZM757.26,358a45,45,0,0,0,18.47-3.75,40.62,40.62,0,0,0,14.54-10.84,50.85,50.85,0,0,0,9.47-17.33,73.69,73.69,0,0,0,3.4-23.23,72.4,72.4,0,0,0-3.46-23.29,51.09,51.09,0,0,0-9.53-17.22,40,40,0,0,0-14.42-10.66,47.33,47.33,0,0,0-36.52.06,40.71,40.71,0,0,0-14.54,10.78,51.13,51.13,0,0,0-9.59,17.28,71.53,71.53,0,0,0-3.46,23.05,73.69,73.69,0,0,0,3.4,23.23,50.85,50.85,0,0,0,9.47,17.33A40.75,40.75,0,0,0,739,354.24,44.31,44.31,0,0,0,757.26,358Z" transform="translate(-11.91 -16.69)" style="fill:#231f20"/><path d="M952.65,338.81A31.89,31.89,0,0,0,942,324.15a28.87,28.87,0,0,0-7.92-4.29,27.35,27.35,0,0,0-9.23-1.55H893.44v63.26H864V224.31h70.53q6.31,0,12,.3a73.91,73.91,0,0,1,11,1.37,47.53,47.53,0,0,1,10,3.22,39.7,39.7,0,0,1,9.17,5.84,41.12,41.12,0,0,1,11.62,16,50.32,50.32,0,0,1,3.87,19.3q0,14.42-7,24.72a44.64,44.64,0,0,1-19.12,15.79,40.65,40.65,0,0,1,9.17,9.71A64,64,0,0,1,982.43,335l16.92,46.58H967.66Zm-59.21-47.54h39.08A72.74,72.74,0,0,0,946,290.2a23.6,23.6,0,0,0,9.17-3.57,14.7,14.7,0,0,0,5.24-6.49,25.54,25.54,0,0,0,1.67-9.83q0-10.48-6.49-15.37T935.49,250H893.44v41.22Z" transform="translate(-11.91 -16.69)" style="fill:#231f20"/><path d="M1164.6,381.58H1127l-50.87-71.37-17.51,17.28v54.09h-29.43V224.31h29.43v66.12L1124,224.31h40L1096.93,290Z" transform="translate(-11.91 -16.69)" style="fill:#231f20"/><path d="M1207,329a34.55,34.55,0,0,0,4.94,12.57,32.33,32.33,0,0,0,8.58,8.82,35.76,35.76,0,0,0,11.38,5.18,52,52,0,0,0,13.34,1.67,55.4,55.4,0,0,0,13-1.43,33.58,33.58,0,0,0,10.13-4.11,19.31,19.31,0,0,0,6.49-6.55,16.8,16.8,0,0,0,2.26-8.64,15,15,0,0,0-2.2-8.22,18.39,18.39,0,0,0-7.21-6.08,68.68,68.68,0,0,0-13.11-4.88q-8.1-2.26-19.9-4.77a137.17,137.17,0,0,1-23.23-6.85,57.42,57.42,0,0,1-16-9.41,33.63,33.63,0,0,1-9.23-12.57,42.44,42.44,0,0,1-3-16.44,40.54,40.54,0,0,1,4.17-18.29,42.83,42.83,0,0,1,11.74-14.48,55.89,55.89,0,0,1,18.17-9.47,76.67,76.67,0,0,1,23.47-3.4,77.83,77.83,0,0,1,23.59,3.4,58.82,58.82,0,0,1,18.76,9.71,48.19,48.19,0,0,1,12.93,15.55,54.84,54.84,0,0,1,6,20.79h-28.59q-5-22.4-31.81-22.4-14.3,0-21.86,4.83t-7.57,13.17a10.76,10.76,0,0,0,1.67,6,15.09,15.09,0,0,0,5.3,4.65,47.78,47.78,0,0,0,9.29,3.87,140.44,140.44,0,0,0,13.76,3.46q7,1.55,14.48,3.28a136.24,136.24,0,0,1,14.54,4.23,87.35,87.35,0,0,1,13.4,6,44.78,44.78,0,0,1,11.08,8.64,38.14,38.14,0,0,1,7.51,12A43.47,43.47,0,0,1,1306,335a44,44,0,0,1-4.47,19.84,46.38,46.38,0,0,1-12.45,15.49,59.28,59.28,0,0,1-18.88,10.13,75.17,75.17,0,0,1-23.89,3.63q-16.2,0-28.47-4a59.05,59.05,0,0,1-20.67-11.26,51.34,51.34,0,0,1-13.11-17.39,66.41,66.41,0,0,1-5.78-22.4H1207Z" transform="translate(-11.91 -16.69)" style="fill:#231f20"/></svg>