<svg xmlns="http://www.w3.org/2000/svg" viewBox="0 0 456.09 219.64"><title>Internet Cloud</title><path d="M314.68,463.43c-5.22-24.74,21.65-47.53,60-50.89a103.41,103.41,0,0,1,44.89,5.79c14.34-17.44,47.86-24.07,74.87-14.8a60.75,60.75,0,0,1,12.87,6.09c11.17-14.45,38.38-20.33,60.78-13.12a46.54,46.54,0,0,1,15.81,8.44c18-13.67,49.83-15.36,71.07-3.77,8.93,4.87,14.95,11.59,17,19,29.5,5.19,46.91,24.86,38.88,43.93a28.58,28.58,0,0,1-2.54,4.7c23.66,19.87,17.87,48.34-12.94,63.6a94.14,94.14,0,0,1-32.89,8.93c-.27,21.37-27.37,38.56-60.54,38.39a86,86,0,0,1-31.32-5.87c-11.22,24-50.35,37.51-87.4,30.25-15.53-3-28.95-9.47-38-18.2-37.94,14.76-87.18,6.82-110-17.73l-.85-.93c-24.83,1.87-47.32-9.55-50.23-25.52-1.55-8.51,2.8-17,11.91-23.29-21.5-8.16-28.72-26.08-16.13-40,7.26-8,20-13.36,34.3-14.31Z" transform="translate(-270.31 -389.92)" style="fill:#fff;stroke:#7f7f7f;stroke-miterlimit:10;stroke-width:7px;fill-rule:evenodd"/><path d="M314.68,463.43c-5.22-24.74,21.65-47.53,60-50.89a103.41,103.41,0,0,1,44.89,5.79c14.34-17.44,47.86-24.07,74.87-14.8a60.75,60.75,0,0,1,12.87,6.09c11.17-14.45,38.38-20.33,60.78-13.12a46.54,46.54,0,0,1,15.81,8.44c18-13.67,49.83-15.36,71.07-3.77,8.93,4.87,14.95,11.59,17,19,29.5,5.19,46.91,24.86,38.88,43.93a28.58,28.58,0,0,1-2.54,4.7c23.66,19.87,17.87,48.34-12.94,63.6a94.14,94.14,0,0,1-32.89,8.93c-.27,21.37-27.37,38.56-60.54,38.39a86,86,0,0,1-31.32-5.87c-11.22,24-50.35,37.51-87.4,30.25-15.53-3-28.95-9.47-38-18.2-37.94,14.76-87.18,6.82-110-17.73l-.85-.93c-24.83,1.87-47.32-9.55-50.23-25.52-1.55-8.51,2.8-17,11.91-23.29-21.5-8.16-28.72-26.08-16.13-40,7.26-8,20-13.36,34.3-14.31Z" transform="translate(-270.31 -389.92)" style="fill:none;stroke:#7f7f7f;stroke-miterlimit:8;stroke-width:7px"/><path d="M322.91,521.52a65.69,65.69,0,0,1-26.3-3.92m49.5,46.83a66.5,66.5,0,0,1-11.51,1.88m110.65,18.74a43.46,43.46,0,0,1-6.93-8.56M573.47,563.7a31.59,31.59,0,0,1-2.77,9.39m57.81-67.43c20.81,6.53,33.94,20.19,33.76,35.11m45.86-72.5a42.06,42.06,0,0,1-15,13.16m-21-62a21.24,21.24,0,0,1,.79,6.22m-96.79-13.47a34.5,34.5,0,0,1,7.7-7.93M504.06,416a23.47,23.47,0,0,1,3.73-6.84m-88.25,9.16a75.54,75.54,0,0,1,13.5,6.63m-116,45.5a32,32,0,0,1-2.36-7" transform="translate(-270.31 -389.92)" style="fill:none;stroke:#7f7f7f;stroke-miterlimit:8;stroke-width:7px"/><path d="M391.27,508.48V466.25h5.59v42.23Z" transform="translate(-270.31 -389.92)" style="fill:#7f7f7f"/><path d="M406.05,508.48v-30.6h4.67v4.35a11,11,0,0,1,9.74-5,12.76,12.76,0,0,1,5.08,1A8,8,0,0,1,429,480.8a10,10,0,0,1,1.61,3.83,29.71,29.71,0,0,1,.29,5v18.81h-5.19V489.87a14,14,0,0,0-.6-4.74,5,5,0,0,0-2.15-2.51,6.83,6.83,0,0,0-3.62-.94,8.4,8.4,0,0,0-5.72,2.1q-2.41,2.1-2.41,8v16.71Z" transform="translate(-270.31 -389.92)" style="fill:#7f7f7f"/><path d="M450.19,503.85l.75,4.58a19.28,19.28,0,0,1-3.92.46,8.87,8.87,0,0,1-4.38-.89,5,5,0,0,1-2.19-2.35q-.63-1.45-.63-6.12v-17.6H436v-4h3.8v-7.58L445,467.2v10.69h5.21v4H445v17.89a9,9,0,0,0,.27,2.85,2.15,2.15,0,0,0,.89,1,3.45,3.45,0,0,0,1.77.38A16.83,16.83,0,0,0,450.19,503.85Z" transform="translate(-270.31 -389.92)" style="fill:#7f7f7f"/><path d="M476.2,498.63l5.36.66a13.08,13.08,0,0,1-4.7,7.29,14.12,14.12,0,0,1-8.76,2.59q-6.71,0-10.65-4.13t-3.93-11.6q0-7.72,4-12a13.46,13.46,0,0,1,10.31-4.26,13.08,13.08,0,0,1,10,4.18q3.89,4.18,3.89,11.75,0,.46,0,1.38H458.89q.29,5,2.85,7.72a8.49,8.49,0,0,0,6.4,2.68,7.93,7.93,0,0,0,4.87-1.5A10,10,0,0,0,476.2,498.63Zm-17-8.38h17.08a10.37,10.37,0,0,0-2-5.79,8,8,0,0,0-6.42-3,8.24,8.24,0,0,0-6,2.39A9.46,9.46,0,0,0,459.18,490.25Z" transform="translate(-270.31 -389.92)" style="fill:#7f7f7f"/><path d="M488,508.48v-30.6h4.67v4.64a12.66,12.66,0,0,1,3.3-4.29,5.76,5.76,0,0,1,3.33-1,10.12,10.12,0,0,1,5.33,1.67l-1.79,4.81a7.42,7.42,0,0,0-3.8-1.12,4.94,4.94,0,0,0-3.05,1,5.54,5.54,0,0,0-1.93,2.84,20.2,20.2,0,0,0-.86,6v16Z" transform="translate(-270.31 -389.92)" style="fill:#7f7f7f"/><path d="M507.72,508.48v-30.6h4.67v4.35a11,11,0,0,1,9.74-5,12.76,12.76,0,0,1,5.08,1,8,8,0,0,1,3.47,2.61,10,10,0,0,1,1.61,3.83,29.66,29.66,0,0,1,.29,5v18.81H527.4V489.87a14,14,0,0,0-.6-4.74,5,5,0,0,0-2.15-2.51,6.83,6.83,0,0,0-3.62-.94,8.4,8.4,0,0,0-5.72,2.1q-2.41,2.1-2.41,8v16.71Z" transform="translate(-270.31 -389.92)" style="fill:#7f7f7f"/><path d="M561.48,498.63l5.36.66a13.08,13.08,0,0,1-4.7,7.29,14.12,14.12,0,0,1-8.76,2.59q-6.71,0-10.64-4.13t-3.93-11.6q0-7.72,4-12a13.46,13.46,0,0,1,10.31-4.26,13.08,13.08,0,0,1,10,4.18q3.89,4.18,3.89,11.75,0,.46,0,1.38H544.16q.29,5,2.85,7.72a8.49,8.49,0,0,0,6.4,2.68,7.93,7.93,0,0,0,4.87-1.5A10,10,0,0,0,561.48,498.63Zm-17-8.38h17.08a10.37,10.37,0,0,0-2-5.79,8,8,0,0,0-6.42-3,8.24,8.24,0,0,0-6,2.39A9.46,9.46,0,0,0,544.45,490.25Z" transform="translate(-270.31 -389.92)" style="fill:#7f7f7f"/><path d="M584.67,503.85l.75,4.58a19.28,19.28,0,0,1-3.92.46,8.87,8.87,0,0,1-4.38-.89,5,5,0,0,1-2.19-2.35q-.63-1.45-.63-6.12v-17.6h-3.8v-4h3.8v-7.58l5.16-3.11v10.69h5.21v4h-5.21v17.89a9,9,0,0,0,.27,2.85,2.15,2.15,0,0,0,.89,1,3.45,3.45,0,0,0,1.77.38A16.83,16.83,0,0,0,584.67,503.85Z" transform="translate(-270.31 -389.92)" style="fill:#7f7f7f"/></svg>