<svg xmlns="http://www.w3.org/2000/svg" viewBox="0 0 340 340"><title>OGR - Red</title><rect x="4.12" y="4" width="332" height="332" rx="166" ry="166" style="fill:none;stroke:#ed1c24;stroke-miterlimit:10;stroke-width:8px"/><path d="M246.25,238.42V206h-153v32.42a5,5,0,0,1-8.64,3.43L20,173.43a5,5,0,0,1,0-6.87L84.61,98.14a5,5,0,0,1,8.64,3.43V134h153V101.58a5,5,0,0,1,8.64-3.43l64.62,68.42a5,5,0,0,1,0,6.87l-64.62,68.42A5,5,0,0,1,246.25,238.42Z" style="fill:#fff;stroke:#ed1c24;stroke-miterlimit:10;stroke-width:8px"/><path d="M144.44,170.55a29.77,29.77,0,0,1-2.74,13.07,20.24,20.24,0,0,1-7.78,8.75,21.67,21.67,0,0,1-11.49,3.07,22,22,0,0,1-11.44-3A20.21,20.21,0,0,1,103.2,184a28.91,28.91,0,0,1-2.93-12.65v-2.84A29.9,29.9,0,0,1,103,155.42a20.19,20.19,0,0,1,7.8-8.75,23.09,23.09,0,0,1,23,0,20.56,20.56,0,0,1,7.82,8.68,29,29,0,0,1,2.83,12.91v2.32Zm-12.38-2.11q0-7.52-2.51-11.42a8.06,8.06,0,0,0-7.19-3.9q-9.15,0-9.67,13.73l0,3.71q0,7.42,2.46,11.41a8,8,0,0,0,7.31,4,8,8,0,0,0,7.11-3.92q2.5-3.92,2.53-11.27v-2.32Z" style="fill:#6d6e71"/><path d="M192,188.51a19.56,19.56,0,0,1-8.22,5A35.44,35.44,0,0,1,172,195.44q-9.92,0-15.84-6.07t-6.34-16.88l0-4.37a30.12,30.12,0,0,1,2.63-13,19.56,19.56,0,0,1,7.54-8.56,21.34,21.34,0,0,1,11.35-3q9.43,0,14.65,4.32T192,160.74H180.29q-0.62-4.23-2.7-6a8.73,8.73,0,0,0-5.89-1.8,7.94,7.94,0,0,0-7.07,3.88q-2.5,3.88-2.53,11.09v3.05q0,7.56,2.58,11.35t8.13,3.8q4.75,0,7.07-2.11v-7.83h-8.46v-8.35H192v20.73Z" style="fill:#6d6e71"/><path d="M217.87,176.9h-6.59v17.85H199.11V144.27H219q9,0,14,4t5.06,11.26a16.39,16.39,0,0,1-2.13,8.73,15.14,15.14,0,0,1-6.67,5.61l10.54,20.38v0.52h-13Zm-6.59-9.36H219a6.91,6.91,0,0,0,5.22-1.82,7.06,7.06,0,0,0,1.75-5.09,7.14,7.14,0,0,0-1.77-5.13,6.84,6.84,0,0,0-5.2-1.86h-7.7v13.9Z" style="fill:#6d6e71"/></svg>