<svg xmlns="http://www.w3.org/2000/svg" viewBox="0 0 456.09 219.64"><title>Internet Cloud</title><path d="M314.68,463.43c-5.22-24.74,21.65-47.53,60-50.89a103.41,103.41,0,0,1,44.89,5.79c14.34-17.44,47.86-24.07,74.87-14.8a60.75,60.75,0,0,1,12.87,6.09c11.17-14.45,38.38-20.33,60.78-13.12a46.54,46.54,0,0,1,15.81,8.44c18-13.67,49.83-15.36,71.07-3.77,8.93,4.87,14.95,11.59,17,19,29.5,5.19,46.91,24.86,38.88,43.93a28.58,28.58,0,0,1-2.54,4.7c23.66,19.87,17.87,48.34-12.94,63.6a94.14,94.14,0,0,1-32.89,8.93c-.27,21.37-27.37,38.56-60.54,38.39a86,86,0,0,1-31.32-5.87c-11.22,24-50.35,37.51-87.4,30.25-15.53-3-28.95-9.47-38-18.2-37.94,14.76-87.18,6.82-110-17.73l-.85-.93c-24.83,1.87-47.32-9.55-50.23-25.52-1.55-8.51,2.8-17,11.91-23.29-21.5-8.16-28.72-26.08-16.13-40,7.26-8,20-13.36,34.3-14.31Z" transform="translate(-270.31 -389.92)" style="fill:#fff;stroke:#f4b183;stroke-miterlimit:10;stroke-width:7px;fill-rule:evenodd"/><path d="M314.68,463.43c-5.22-24.74,21.65-47.53,60-50.89a103.41,103.41,0,0,1,44.89,5.79c14.34-17.44,47.86-24.07,74.87-14.8a60.75,60.75,0,0,1,12.87,6.09c11.17-14.45,38.38-20.33,60.78-13.12a46.54,46.54,0,0,1,15.81,8.44c18-13.67,49.83-15.36,71.07-3.77,8.93,4.87,14.95,11.59,17,19,29.5,5.19,46.91,24.86,38.88,43.93a28.58,28.58,0,0,1-2.54,4.7c23.66,19.87,17.87,48.34-12.94,63.6a94.14,94.14,0,0,1-32.89,8.93c-.27,21.37-27.37,38.56-60.54,38.39a86,86,0,0,1-31.32-5.87c-11.22,24-50.35,37.51-87.4,30.25-15.53-3-28.95-9.47-38-18.2-37.94,14.76-87.18,6.82-110-17.73l-.85-.93c-24.83,1.87-47.32-9.55-50.23-25.52-1.55-8.51,2.8-17,11.91-23.29-21.5-8.16-28.72-26.08-16.13-40,7.26-8,20-13.36,34.3-14.31Z" transform="translate(-270.31 -389.92)" style="fill:none;stroke:#f4b183;stroke-miterlimit:8;stroke-width:7px"/><path d="M322.91,521.52a65.69,65.69,0,0,1-26.3-3.92m49.5,46.83a66.5,66.5,0,0,1-11.51,1.88m110.65,18.74a43.46,43.46,0,0,1-6.93-8.56M573.47,563.7a31.59,31.59,0,0,1-2.77,9.39m57.81-67.43c20.81,6.53,33.94,20.19,33.76,35.11m45.86-72.5a42.06,42.06,0,0,1-15,13.16m-21-62a21.24,21.24,0,0,1,.79,6.22m-96.79-13.47a34.5,34.5,0,0,1,7.7-7.93M504.06,416a23.47,23.47,0,0,1,3.73-6.84m-88.25,9.16a75.54,75.54,0,0,1,13.5,6.63m-116,45.5a32,32,0,0,1-2.36-7" transform="translate(-270.31 -389.92)" style="fill:none;stroke:#f4b183;stroke-miterlimit:8;stroke-width:7px"/><path d="M438.61,513.83,427.4,471.6h5.73l6.42,27.69q1,4.35,1.79,8.64,1.61-6.77,1.9-7.81l8-28.52H458l6,21.38a113.31,113.31,0,0,1,3.28,15q.81-4,2.1-9.19l6.63-27.14h5.62l-11.58,42.23h-5.39l-8.9-32.18q-1.12-4-1.33-5-.66,2.91-1.24,5l-9,32.18Z" transform="translate(-270.31 -389.92)" style="fill:#7f7f7f"/><path d="M480.09,513.83l16.22-42.23h6l17.29,42.23h-6.37L508.33,501H490.67L486,513.83Zm12.19-17.34H506.6l-4.41-11.7q-2-5.33-3-8.76a53.87,53.87,0,0,1-2.28,8.07Z" transform="translate(-270.31 -389.92)" style="fill:#7f7f7f"/><path d="M524,513.83V471.6h5.73l22.18,33.16V471.6h5.36v42.23h-5.73l-22.18-33.19v33.19Z" transform="translate(-270.31 -389.92)" style="fill:#7f7f7f"/></svg>