<?xml version="1.0" ?><svg height="24px" version="1.1" viewBox="0 0 24 24" width="24px" xmlns="http://www.w3.org/2000/svg" xmlns:sketch="http://www.bohemiancoding.com/sketch/ns" xmlns:xlink="http://www.w3.org/1999/xlink"><title/><desc/><defs/><g fill="none" fill-rule="evenodd" id="miu" stroke="none" stroke-width="1"><g id="Artboard-1" transform="translate(-647.000000, -407.000000)"><g id="slice" transform="translate(215.000000, 119.000000)"/><path d="M661.355321,423.477719 C659.978868,424.437293 658.305148,425 656.5,425 C651.805579,425 648,421.194421 648,416.5 C648,411.805579 651.805579,408 656.5,408 C661.194421,408 665,411.805579 665,416.5 C665,418.667567 664.188662,420.645635 662.85311,422.147082 L669.197023,428.490994 C669.25233,428.546301 669.257003,428.642045 669.200832,428.698217 L667.990032,429.909017 C667.935379,429.96367 667.841084,429.963482 667.782809,429.905207 L661.355321,423.477719 L661.355321,423.477719 Z M656.5,424 C660.642136,424 664,420.642136 664,416.5 C664,412.357864 660.642136,409 656.5,409 C652.357864,409 649,412.357864 649,416.5 C649,420.642136 652.357864,424 656.5,424 Z M653,416 L653,417 L660,417 L660,416 L653,416 Z" fill="#000000" id="editor-zoom_out-minus-subtract-magnify-stroke"/></g></g></svg>